<svg width="194" height="156" viewBox="0 0 194 156" fill="none" xmlns="http://www.w3.org/2000/svg">
<g clip-path="url(#clip0_2_34)">
<path d="M164.275 0.5C148.297 0.5 135.282 13.5458 135.282 29.5625C135.282 45.5792 148.297 58.625 164.275 58.625C180.253 58.625 193.268 45.5792 193.268 29.5625C193.268 13.5458 180.253 0.5 164.275 0.5ZM164.275 6.95833C176.774 6.95833 186.825 17.0333 186.825 29.5625C186.825 42.0917 176.774 52.1667 164.275 52.1667C151.776 52.1667 141.725 42.0917 141.725 29.5625C141.725 17.0333 151.776 6.95833 164.275 6.95833ZM164.275 13.4167C162.49 13.4167 161.054 14.8569 161.054 16.6458V26.3333H151.389C149.605 26.3333 148.168 27.7735 148.168 29.5625C148.168 31.3515 149.605 32.7917 151.389 32.7917H161.054V42.4792C161.054 44.2681 162.49 45.7083 164.275 45.7083C166.06 45.7083 167.496 44.2681 167.496 42.4792V32.7917H177.161C178.945 32.7917 180.382 31.3515 180.382 29.5625C180.382 27.7735 178.945 26.3333 177.161 26.3333H167.496V16.6458C167.496 14.8569 166.06 13.4167 164.275 13.4167ZM67.6317 84.4583H151.389C153.174 84.4583 154.611 85.8985 154.611 87.6875C154.611 89.4764 153.174 90.9167 151.389 90.9167H67.6317C65.8471 90.9167 64.4103 89.4764 64.4103 87.6875C64.4103 85.8985 65.8471 84.4583 67.6317 84.4583ZM61.1889 58.625H138.503C140.288 58.625 141.725 60.0652 141.725 61.8542C141.725 63.6431 140.288 65.0833 138.503 65.0833H61.1889C59.4042 65.0833 57.9674 63.6431 57.9674 61.8542C57.9674 60.0652 59.4042 58.625 61.1889 58.625ZM138.503 123.208C129.644 123.208 122.396 130.474 122.396 139.354C122.396 148.234 129.644 155.5 138.503 155.5C147.362 155.5 154.611 148.234 154.611 139.354C154.611 130.474 147.362 123.208 138.503 123.208ZM138.503 129.667C143.877 129.667 148.168 133.968 148.168 139.354C148.168 144.74 143.877 149.042 138.503 149.042C133.13 149.042 128.839 144.74 128.839 139.354C128.839 133.968 133.13 129.667 138.503 129.667ZM74.0746 123.208C65.2157 123.208 57.9674 130.474 57.9674 139.354C57.9674 148.234 65.2157 155.5 74.0746 155.5C82.9336 155.5 90.1818 148.234 90.1818 139.354C90.1818 130.474 82.9336 123.208 74.0746 123.208ZM74.0746 129.667C79.448 129.667 83.7389 133.968 83.7389 139.354C83.7389 144.74 79.448 149.042 74.0746 149.042C68.7013 149.042 64.4103 144.74 64.4103 139.354C64.4103 133.968 68.7013 129.667 74.0746 129.667ZM3.25448 6.95833C-1.06225 6.95833 -1.10735 13.4167 3.25448 13.4167H26.3973C26.8741 15.7094 30.5208 33.1469 34.8633 53.6521C37.1698 64.5408 39.5279 75.6492 41.4221 84.4325C43.3099 93.2158 44.6758 99.461 45.2105 101.437C46.061 104.628 46.8599 108.251 49.2051 111.409C51.5374 114.561 55.648 116.744 61.1889 116.744H151.338C156.879 116.744 160.989 114.561 163.334 111.409C165.673 108.244 166.466 104.628 167.329 101.431C167.889 99.2867 168.772 94.3073 169.97 88.0621C171.15 81.7975 172.548 74.5448 173.836 69.0294C174.899 65.0704 168.321 63.346 167.574 67.5698C166.246 73.279 164.823 80.564 163.631 86.8415C162.439 93.1254 161.395 98.6731 161.105 99.7581C160.229 103.026 159.411 105.861 158.161 107.547C156.911 109.239 155.455 110.285 151.344 110.285H61.1889C57.0783 110.285 55.6222 109.239 54.3594 107.547C53.1159 105.868 52.2977 103.026 51.4215 99.7646C51.0993 98.5181 49.6175 91.8402 47.7232 83.0698C45.8355 74.2994 43.4709 63.204 41.1708 52.3023C36.5577 30.5183 32.1508 9.52229 32.1508 9.52229C31.8415 8.03687 30.5272 6.96479 28.9938 6.96479L3.25448 6.95833ZM54.7589 32.7917C50.4744 32.7917 50.5259 39.25 54.7589 39.25H119.136C123.466 39.25 123.369 32.7917 119.136 32.7917H54.7589Z" fill="white"/>
</g>
<defs>
<clipPath id="clip0_2_34">
<rect width="194" height="155" fill="white" transform="translate(0 0.5)"/>
</clipPath>
</defs>
</svg>
