<svg width="56" height="56" viewBox="0 0 56 56" fill="none" xmlns="http://www.w3.org/2000/svg">
<path d="M28 0C12.561 0 0 12.561 0 28C0 43.439 12.561 56 28 56C43.439 56 56 43.439 56 28C56 12.561 43.439 0 28 0ZM40 41H16C14.896 41 14 40.104 14 39C14 37.896 14.896 37 16 37H40C41.104 37 42 37.896 42 39C42 40.104 41.104 41 40 41ZM40 30H16C14.896 30 14 29.104 14 28C14 26.896 14.896 26 16 26H40C41.104 26 42 26.896 42 28C42 29.104 41.104 30 40 30ZM40 19H28H22H16C14.896 19 14 18.104 14 17C14 15.896 14.896 15 16 15H40C41.104 15 42 15.896 42 17C42 18.104 41.104 19 40 19Z" fill="#3A9B93"/>
<path d="M40 30H16C14.896 30 14 29.104 14 28C14 26.896 14.896 26 16 26H40C41.104 26 42 26.896 42 28C42 29.104 41.104 30 40 30Z" fill="#042733"/>
<path d="M40 41H16C14.896 41 14 40.104 14 39C14 37.896 14.896 37 16 37H40C41.104 37 42 37.896 42 39C42 40.104 41.104 41 40 41Z" fill="#042733"/>
<path d="M16 19C14.896 19 14 18.104 14 17C14 15.896 14.896 15 16 15H40C41.104 15 42 15.896 42 17C42 18.104 41.104 19 40 19H28H22H16Z" fill="#042733"/>
</svg>
